<svg xmlns="http://www.w3.org/2000/svg" version="1.1" xmlns:xlink="http://www.w3.org/1999/xlink" xmlns:svgjs="http://svgjs.dev/svgjs" width="128" height="128" viewBox="0 0 128 128"><g transform="matrix(0.6023391812865497,0,0,0.6023391812865497,25.552171380741072,12.333870967741937)"><svg viewBox="0 0 116 155" data-background-color="#ffffff" preserveAspectRatio="xMidYMid meet" height="171" width="128" xmlns="http://www.w3.org/2000/svg" xmlns:xlink="http://www.w3.org/1999/xlink"><g id="tight-bounds" transform="matrix(1,0,0,1,-0.15328212290502563,0.25)"><svg viewBox="0 0 116.30656424581005 154.5" height="154.5" width="116.30656424581005"><g><svg viewBox="0 0 116.30656424581005 154.5" height="154.5" width="116.30656424581005"><g><svg viewBox="0 0 116.30656424581005 154.5" height="154.5" width="116.30656424581005"><g><svg viewBox="0 0 116.30656424581005 154.5" height="154.5" width="116.30656424581005"><g><svg viewBox="0 0 116.30656424581005 154.5" height="154.5" width="116.30656424581005"><g transform="matrix(1,0,0,1,0,0)"><svg width="116.30656424581005" viewBox="2.05 -35.4 26.95 35.8" height="154.5" data-palette-color="#ee3e38"><path d="M15.45 0.4Q11.5 0.4 7.83-0.83 4.15-2.05 2.05-4L2.05-4 3.9-7.9Q5.9-6.1 9.03-4.98 12.15-3.85 15.45-3.85L15.45-3.85Q19.8-3.85 21.95-5.33 24.1-6.8 24.1-9.25L24.1-9.25Q24.1-11.05 22.93-12.18 21.75-13.3 20.03-13.9 18.3-14.5 15.15-15.25L15.15-15.25Q11.2-16.2 8.78-17.15 6.35-18.1 4.63-20.08 2.9-22.05 2.9-25.4L2.9-25.4Q2.9-28.2 4.38-30.45 5.85-32.7 8.85-34.05 11.85-35.4 16.3-35.4L16.3-35.4Q19.4-35.4 22.4-34.6 25.4-33.8 27.55-32.3L27.55-32.3 25.9-28.3Q23.7-29.7 21.2-30.43 18.7-31.15 16.3-31.15L16.3-31.15Q12.05-31.15 9.93-29.6 7.8-28.05 7.8-25.6L7.8-25.6Q7.8-23.8 9-22.68 10.2-21.55 11.98-20.93 13.75-20.3 16.8-19.6L16.8-19.6Q20.75-18.65 23.15-17.7 25.55-16.75 27.28-14.8 29-12.85 29-9.55L29-9.55Q29-6.8 27.5-4.53 26-2.25 22.95-0.93 19.9 0.4 15.45 0.4L15.45 0.4Z" opacity="1" transform="matrix(1,0,0,1,0,0)" fill="#ee3e38" class="undefined-text-0" data-fill-palette-color="primary" id="text-0"></path></svg></g></svg></g></svg></g></svg></g><g></g></svg></g><defs></defs></svg><rect width="116.30656424581005" height="154.5" fill="none" stroke="none" visibility="hidden"></rect></g></svg></g></svg>